<?xml version="1.0" standalone="no"?>
<!DOCTYPE svg PUBLIC "-//W3C//DTD SVG 20010904//EN"
 "http://www.w3.org/TR/2001/REC-SVG-20010904/DTD/svg10.dtd">
<svg version="1.0" xmlns="http://www.w3.org/2000/svg"
 width="320.000000pt" height="320.000000pt" viewBox="0 0 320.000000 320.000000"
 preserveAspectRatio="xMidYMid meet">
<metadata>
Created by potrace 1.14, written by Peter Selinger 2001-2017
</metadata>
<g transform="translate(0.000000,320.000000) scale(0.100000,-0.100000)"
fill="#000000" stroke="none">
<path d="M0 1600 l0 -1600 633 0 633 0 -10 70 c-5 39 -13 70 -17 70 -4 0 -44
-13 -89 -30 -45 -16 -100 -30 -123 -30 -40 0 -46 4 -145 107 -139 145 -149
159 -168 237 -16 64 -21 70 -123 174 -166 167 -268 332 -341 551 -52 154 -70
272 -70 457 0 181 16 285 70 445 68 206 169 374 317 530 189 198 415 331 682
401 103 27 137 31 302 35 147 4 208 2 285 -11 116 -20 303 -80 401 -129 263
-133 507 -377 640 -640 47 -95 109 -283 127 -392 20 -116 21 -360 1 -483 -31
-189 -110 -387 -221 -555 -61 -91 -211 -256 -293 -321 -28 -23 -37 -40 -57
-119 -29 -112 -29 -173 2 -253 13 -33 24 -73 24 -87 l0 -27 370 0 370 0 0
1600 0 1600 -1600 0 -1600 0 0 -1600z"/>
<path d="M1360 2869 c-19 -4 -47 -11 -62 -15 -41 -10 -93 -63 -116 -120 -12
-28 -34 -65 -49 -81 -16 -16 -39 -53 -52 -81 -19 -41 -22 -59 -17 -97 4 -25
14 -49 22 -52 8 -3 14 -12 14 -21 0 -8 11 -30 26 -49 14 -18 30 -47 36 -63 24
-70 35 -10 28 163 -3 91 10 109 100 138 38 13 70 27 70 31 0 11 76 10 218 -4
l124 -12 28 -36 c39 -49 82 -150 76 -176 -3 -12 -2 -24 2 -28 4 -4 8 -12 8
-17 1 -5 3 -17 4 -26 1 -13 4 -11 9 7 5 14 6 29 3 34 -3 5 -6 64 -8 130 -1 67
-6 144 -11 173 -10 58 -55 133 -84 140 -10 3 -19 9 -19 14 0 5 -5 9 -12 9 -6
0 -19 6 -27 14 -34 29 -227 45 -311 25z"/>
<path d="M1632 2424 c-53 -22 -36 -30 43 -20 41 6 72 13 68 17 -17 14 -80 16
-111 3z"/>
<path d="M1294 2370 c-35 -14 -42 -34 -10 -26 14 3 46 9 71 13 24 3 42 10 39
14 -7 11 -72 10 -100 -1z"/>
<path d="M1212 2298 c-7 -7 -12 -19 -12 -27 0 -13 2 -14 9 -2 7 11 10 10 14
-5 3 -12 5 -6 6 14 1 36 0 37 -17 20z"/>
<path d="M1852 2060 c-1 -14 -7 -42 -13 -63 -8 -29 -13 -36 -23 -28 -9 7 -16
5 -26 -9 -8 -11 -20 -20 -27 -20 -12 0 -17 -13 -14 -32 0 -5 -3 -8 -8 -8 -6 0
-8 19 -4 45 4 39 2 48 -18 65 -14 11 -39 19 -61 20 -26 0 -41 6 -52 21 -20 29
-61 17 -52 -14 3 -12 6 -30 6 -40 0 -13 6 -16 25 -13 13 3 27 0 30 -5 4 -5 22
-9 41 -9 19 0 34 -4 34 -10 0 -5 7 -7 15 -4 8 4 15 4 15 1 0 -13 -42 -98 -47
-93 -8 8 -33 -21 -33 -38 0 -10 -6 -13 -15 -9 -9 3 -15 2 -14 -3 1 -5 1 -18 0
-29 -1 -15 -3 -17 -10 -6 -7 11 -11 10 -19 -5 -10 -18 -11 -17 -21 6 -8 21
-10 22 -11 5 0 -16 -2 -17 -9 -6 -8 13 -12 13 -27 0 -16 -12 -17 -12 -11 3 4
12 -3 24 -21 38 -15 11 -33 25 -39 30 -7 6 -13 7 -14 3 0 -4 -4 2 -10 15 -5
13 -14 20 -20 17 -6 -4 0 10 14 31 13 22 33 40 43 42 36 6 84 33 84 47 0 46
-23 55 -73 29 -18 -9 -39 -20 -46 -24 -30 -14 -54 -60 -61 -117 -5 -36 -8 -47
-10 -28 -2 28 -2 29 -9 6 -6 -23 -7 -23 -24 -6 -35 35 -25 8 14 -37 l40 -47
-28 -14 c-15 -8 -75 -34 -133 -57 -128 -53 -163 -74 -217 -133 -36 -39 -43
-53 -43 -86 0 -42 43 -190 65 -225 7 -12 25 -66 40 -121 16 -55 50 -145 77
-201 30 -62 48 -114 48 -136 0 -27 5 -37 19 -41 22 -5 81 -93 81 -120 0 -10
-10 -22 -22 -27 -21 -8 -20 -9 10 -9 20 -1 39 -9 50 -22 26 -31 60 -45 140
-59 77 -13 231 -7 263 10 22 12 46 55 65 119 13 45 57 112 129 198 40 48 65
100 65 138 0 39 34 119 70 163 73 91 203 172 309 192 28 5 60 14 70 20 14 7
25 5 46 -12 l27 -21 -7 34 c-18 86 -58 188 -90 232 -40 53 -71 71 -259 143
-65 25 -141 56 -170 70 -28 13 -69 27 -91 30 l-40 5 28 -18 c38 -25 34 -47
-15 -81 -24 -16 -80 -54 -125 -86 -99 -69 -139 -86 -196 -86 -33 0 -49 6 -65
23 -22 23 -58 114 -50 123 3 2 20 -4 39 -13 50 -25 131 -29 185 -8 25 9 69 40
98 69 47 46 57 62 85 150 19 57 30 111 28 130 -3 25 -4 26 -5 6z m-429 -894
c20 -4 37 -10 37 -14 0 -4 25 -8 56 -9 31 -1 58 -4 61 -6 2 -3 0 -30 -6 -60
-7 -38 -7 -85 0 -147 6 -51 8 -94 6 -96 -2 -2 -23 3 -47 11 -23 8 -53 15 -66
15 -12 0 -25 4 -28 9 -3 5 -15 7 -25 4 -10 -3 -22 0 -26 7 -5 7 -11 8 -19 1
-10 -8 -12 2 -12 42 1 28 4 57 8 63 4 6 3 28 -3 49 -8 28 -8 40 2 45 8 6 10
23 5 61 -6 42 -5 50 6 42 7 -6 30 -13 51 -17z"/>
<path d="M1392 1095 c0 -16 2 -22 5 -12 2 9 2 23 0 30 -3 6 -5 -1 -5 -18z"/>
<path d="M1391 1003 c1 -34 2 -35 9 -13 11 36 11 50 0 50 -5 0 -10 -17 -9 -37z"/>
<path d="M1451 904 c0 -11 3 -14 6 -6 3 7 2 16 -1 19 -3 4 -6 -2 -5 -13z"/>
<path d="M1608 1915 c-2 -2 -25 -5 -51 -6 -60 -3 -68 -14 -24 -35 30 -14 39
-15 65 -3 38 17 57 44 32 46 -10 1 -20 0 -22 -2z"/>
<path d="M1550 1830 c0 -5 5 -10 11 -10 5 0 7 5 4 10 -3 6 -8 10 -11 10 -2 0
-4 -4 -4 -10z"/>
<path d="M1586 1815 c4 -8 8 -15 10 -15 2 0 4 7 4 15 0 8 -4 15 -10 15 -5 0
-7 -7 -4 -15z"/>
<path d="M1122 706 c-10 -23 -7 -36 9 -36 3 0 9 14 11 30 5 36 -5 39 -20 6z"/>
<path d="M2355 173 c-16 -49 -34 -105 -41 -125 l-13 -38 69 0 c68 0 70 1 70
25 0 14 -9 43 -20 65 -13 26 -20 59 -20 100 0 33 -4 60 -9 60 -5 0 -21 -39
-36 -87z"/>
<path d="M1278 83 c2 -40 9 -66 16 -69 7 -3 46 -4 86 -2 l74 3 -45 29 c-24 16
-64 46 -89 66 l-45 38 3 -65z"/>
</g>
</svg>
